# xmcd
#
# Track frame offsets:
#	150
#	21235
#	34510
#	49307
#	65083
#	85479
#	109033
#	129113
#	150654
#	178675
#	200249
#	226840
#
# Disc length: 3252 seconds
#
# Revision: 0
# Processed by: cddbd v1.5.2PL0 Copyright (c) Steve Scherf et al.
# Submitted via: audiograbber 1.83.01
#
DISCID=9f0cb20c
DTITLE=Julien Clerc - Palais des sports Vol 2
DYEAR=1977
DGENRE=Chanson Francaise
TTITLE0=Le coeur trop grand pour toi
TTITLE1=Niagara
TTITLE2=Le coeur volcan
TTITLE3=Juste comme un enfant
TTITLE4=La fille de la veranda
TTITLE5=C'est une andalouse (et presentation des musiciens)
TTITLE6=This melody
TTITLE7=La cavalerie
TTITLE8=Yann et les dauphins
TTITLE9=Ce n'est rien
TTITLE10=Partir
TTITLE11=Mon camarade
EXTD=
EXTT0=
EXTT1=
EXTT2=
EXTT3=
EXTT4=
EXTT5=
EXTT6=
EXTT7=
EXTT8=
EXTT9=
EXTT10=
EXTT11=
PLAYORDER=
